# AST/ASF file generated using VICON BodyLanguage
# -----------------------------------------------
:version 1.10
:name VICON
:units
  mass 1.0
  length 0.45
  angle deg
:documentation
   .ast/.asf automatically generated from VICON data using
   VICON BodyBuilder and BodyLanguage model FoxedUp or BRILLIANT.MOD
:root
   order TX TY TZ RX RY RZ
   axis XYZ
   position 0 0 0  
   orientation 0 0 0 
:bonedata
  begin
     id 1 
     name lhipjoint
     direction 0.596438 -0.722117 0.35044 
     length 2.43043 
     axis 0 0 0  XYZ
  end
  begin
     id 2 
     name lfemur
     direction 0.34202 -0.939693 0  
     length 7.0339  
     axis 0 0 20  XYZ
    dof rx ry rz
    limits (-160.0 20.0)
           (-70.0 70.0)
           (-60.0 70.0)
  end
  begin
     id 3 
     name ltibia
     direction 0.34202 -0.939693 0   
     length 7.56602   
     axis 0 0 20   XYZ
    dof rx
    limits (-10.0 170.0)
  end
  begin
     id 4 
     name lfoot
     direction 0.0985677 -0.270812 0.957572   
     length 1.85172   
     axis -90 7.62852e-016 20   XYZ
    dof rx rz
    limits (-45.0 90.0)
           (-70.0 20.0)
  end
  begin
     id 5 
     name ltoes
     direction 1.53534e-011 -4.21843e-011 1   
     length 0.929904   
     axis -90 7.62852e-016 20   XYZ
    dof rx
    limits (-90.0 20.0)
  end
  begin
     id 6 
     name rhipjoint
     direction -0.585088 -0.729594 0.354068   
     length 2.40552  
     axis 0 0 0  XYZ 
  end
  begin
     id 7 
     name rfemur
     direction -0.34202 -0.939693 0   
     length 7.12573   
     axis 0 0 -20   XYZ
    dof rx ry rz
    limits (-160.0 20.0)
           (-70.0 70.0)
           (-70.0 60.0)
  end
  begin
     id 8 
     name rtibia
     direction -0.34202 -0.939693 0   
     length 7.35777   
     axis 0 0 -20   XYZ
    dof rx
    limits (-10.0 170.0)
 end
 begin
     id 9 
     name rfoot
     direction -0.120907 -0.33219 0.935431   
     length 2.0994  
     axis -90 -7.62852e-016 -20   XYZ
    dof rx rz
    limits (-45.0 90.0)
           (-20.0 70.0)
  end
  begin
     id 10 
     name rtoes
     direction -1.53577e-011 -4.21787e-011 1   
     length 1.04244   
     axis -90 -7.62852e-016 -20   XYZ
    dof rx
    limits (-90.0 20.0)
  end
  begin
     id 11 
     name lowerback
     direction 0.00268363 0.993603 -0.112896   
     length 2.15839   
     axis 0 0 0   XYZ
    dof rx ry rz
    limits (-20.0 45.0)
           (-30.0 30.0)
           (-30.0 30.0)
  end
  begin
     id 12 
     name upperback
     direction 0.0272563 0.999411 -0.0208618   
     length 2.16443   
     axis 0 0 0   XYZ
    dof rx ry rz
    limits (-20.0 45.0)
           (-30.0 30.0)
           (-30.0 30.0)
  end
  begin
     id 13 
     name thorax
     direction 0.0254655 0.999174 0.0316806   
     length 2.19003   
     axis 0 0 0   XYZ
    dof rx ry rz
    limits (-20.0 45.0)
           (-30.0 30.0)
           (-30.0 30.0)
  end
  begin
     id 14 
     name lowerneck
     direction -0.0102178 0.988048 0.15381   
     length 1.61507   
     axis 0 0 0   XYZ
    dof rx ry rz
    limits (-20.0 45.0)
           (-30.0 30.0)
           (-30.0 30.0)
  end
  begin
     id 15 
     name upperneck
     direction -0.0061965 0.994088 -0.108398   
     length 1.64042   
     axis 0 0 0   XYZ
    dof rx ry rz
    limits (-20.0 45.0)
           (-30.0 30.0)
           (-30.0 30.0)
  end
  begin
     id 16
     name head
     direction -0.00151929 0.998591 -0.0530385  
     length 1.64343  
     axis 0 0 0   XYZ
    dof rx ry rz
    limits (-20.0 45.0)
           (-30.0 30.0)
           (-30.0 30.0)
  end
  begin
     id 17 
     name lclavicle
     direction 0.948974 0.284245 -0.136574  
     length 3.3483  
     axis 0 0 0   XYZ
    dof ry rz
    limits (-20.0 10.0)
           (0.0 20.0)
  end
  begin
     id 18 
     name lhumerus
     direction 1 -4.48961e-011 1.68576e-027   
     length 4.93485   
     axis -180 -30 -90   XYZ
    dof rx ry rz
    limits (-60.0 90.0)
           (-90.0 90.0)
           (-90.0 90.0)
  end
  begin
     id 19
     name lradius
     direction 1 -4.48965e-011 -2.46405e-027   
     length 3.41719   
     axis -180 -30 -90   XYZ
    dof rx
    limits (-10.0 170.0)
  end
  begin
     id 20
     name lwrist
     direction 1 -4.48968e-011 -8.00486e-028   
     length 1.7086   
     axis 3.27501e-015 90 90   XYZ
    dof ry
    limits (-180.0 0.0)
 end
  begin
     id 21 
     name lhand
     direction 1 -4.48977e-011 -1.60161e-027   
     length 0.6241   
     axis 1.02148e-015 90 90   XYZ
    dof rx rz
    limits (-90.0 90.0)
           (-45.0 45.0)
  end
  begin
     id 22 
     name lfingers
     direction 1 -4.49049e-011 -3.21275e-027   
     length 0.503166   
     axis 2.04295e-015 90 90   XYZ
    dof rx
    limits (0.0 90.0)
  end
  begin
     id 23
     name lthumb
     direction 0.707107 -6.34975e-011 0.707107   
     length 0.722448   
     axis -90 45 -1.62303e-014   XYZ
    dof rx rz
    limits (-45.0 45.0)
           (-45.0 45.0)
  end
  begin
     id 24 
     name rclavicle
     direction -0.904485 0.355099 -0.236246   
     length 3.18329  
     axis 0 0 0   XYZ 
    dof ry rz
    limits (-10.0 20.0)
           (-20.0 0.0)
  end
  begin
     id 25 
     name rhumerus
     direction -1 -4.48953e-011 1.32816e-027  
     length 5.22034   
     axis -180 30 90   XYZ
    dof rx ry rz
    limits (-90.0 60.0)
           (-90.0 90.0)
           (-90.0 90.0)
  end
  begin
     id 26 
     name rradius
     direction -1 -4.48965e-011 -3.93727e-027   
     length 3.41809   
     axis -180 30 90   XYZ
    dof rx
    limits (-10.0 170.0)
  end
  begin
     id 27 
     name rwrist
     direction -1 -4.48962e-011 -8.003e-028   
     length 1.70904   
     axis 3.27501e-015 -90 -90   XYZ
    dof ry
    limits (-180.0 0.0)
  end
  begin
     id 28
     name rhand
     direction -1 -4.49008e-011 -1.60365e-027   
     length 0.77534   
     axis 1.02148e-015 -90 -90   XYZ
    dof rx rz
    limits (-90.0 90.0)
           (-45.0 45.0)
  end
  begin
     id 29
     name rfingers
     direction -1 -4.49001e-011 -3.2064e-027   
     length 0.625099   
     axis 2.04295e-015 -90 -90   XYZ
    dof rx
    limits (0.0 90.0)
  end
  begin
     id 30
     name rthumb
     direction -0.707107 -6.34989e-011 0.707107   
     length 0.897521   
     axis -90 -45 1.62303e-014   XYZ
    dof rx rz
    limits (-45.0 45.0)
           (-45.0 45.0)
  end
:hierarchy
  begin
    root lhipjoint rhipjoint lowerback
    lhipjoint lfemur
    lfemur ltibia
    ltibia lfoot
    lfoot ltoes
    rhipjoint rfemur
    rfemur rtibia
    rtibia rfoot
    rfoot rtoes
    lowerback upperback
    upperback thorax
    thorax lowerneck lclavicle rclavicle
    lowerneck upperneck
    upperneck head
    lclavicle lhumerus
    lhumerus lradius
    lradius lwrist
    lwrist lhand lthumb
    lhand lfingers
    rclavicle rhumerus
    rhumerus rradius
    rradius rwrist
    rwrist rhand rthumb
    rhand rfingers
  end

#!OML:ASF \\sashay\E\Suitcase\Project 1\Capture day 1\Session 1\Male1.ASF
:FULLY-SPECIFIED
:DEGREES
202
root 0.0540009 17.2768 -33.2501 4.81089 4.53975 -3.41989
lowerback 3.63767 -1.43604 1.7602
upperback -0.73861 -1.72314 4.03488
thorax -2.72961 -0.854758 3.27579
lowerneck -12.0524 -0.879081 2.38838
upperneck 8.74085 -0.751184 -7.3915
head 4.55271 -0.75477 -2.73727
rclavicle -7.45443e-015 3.18055e-015
rhumerus -36.5013 -31.4441 -60.6045
rradius 16.2225
rwrist 5.5442
rhand -26.3046 30.879
rfingers 7.12502
rthumb 0.251537 0.899377
lclavicle -7.45443e-015 3.18055e-015
lhumerus -33.4883 2.40164 83.9409
lradius 39.6182
lwrist -3.16667
lhand -3.43387 41.1993
lfingers 7.12502
lthumb 22.2975 69.9329
rfemur -10.3191 -0.224542 29.7395
rtibia 27.9921
rfoot -23.4161 -9.2707
rtoes 21.6093
lfemur -19.7199 -2.85893 -17.3528
ltibia 42.6344
lfoot -23.0485 -0.961291
ltoes 4.91401
203
root 0.0506048 17.2704 -33.2277 4.87335 4.64723 -3.49394
lowerback 3.59983 -1.41072 1.95919
upperback -0.83128 -1.67911 3.96908
thorax -2.8136 -0.835993 3.09408
lowerneck -12.1359 -0.838052 2.28274
upperneck 8.90621 -0.683773 -7.26056
head 4.62174 -0.721095 -2.67725
rclavicle 1.09332e-014 4.13472e-014
rhumerus -36.5913 -32.3958 -60.1482
rradius 15.6972
rwrist 6.53458
rhand -26.3766 30.7055
rfingers 7.12502
rthumb 0.182014 0.72588
lclavicle 1.09332e-014 4.13472e-014
lhumerus -33.7228 2.29178 83.9216
lradius 39.6311
lwrist -3.12351
lhand -3.40108 41.4676
lfingers 7.12502
lthumb 22.329 70.1974
rfemur -10.2894 -0.222338 29.8574
rtibia 27.8796
rfoot -23.3204 -9.5264
rtoes 21.0017
lfemur -20.2828 -2.88935 -17.2306
ltibia 43.5577
lfoot -22.8013 -0.719805
ltoes 4.99675
204
root 0.0451704 17.2751 -33.197 4.8632 4.6131 -3.52736
lowerback 3.53958 -1.33756 2.06039
upperback -0.945801 -1.57527 3.93229
thorax -2.90573 -0.785819 2.9938
lowerneck -12.0979 -0.894954 2.25155
upperneck 9.10867 -0.729248 -7.38754
head 4.67538 -0.755137 -2.71728
rclavicle 9.83984e-015 1.59028e-015
rhumerus -36.7051 -31.9231 -60.4483
rradius 16.0175
rwrist 6.04337
rhand -26.3143 30.6545
rfingers 7.12502
rthumb 0.242195 0.674855
lclavicle 9.83984e-015 1.59028e-015
lhumerus -33.9641 2.50708 83.8892
lradius 39.295
lwrist -3.61402
lhand -3.6454 40.7886
lfingers 7.12502
lthumb 22.0944 69.5463
rfemur -10.078 -0.2029 29.9231
rtibia 27.7227
rfoot -23.2587 -9.50887
rtoes 22.7533
lfemur -20.754 -2.76669 -17.1837
ltibia 44.5114
lfoot -22.6891 -0.306818
ltoes 3.31757
205
root 0.0410407 17.263 -33.1718 4.62231 4.59563 -3.70495
lowerback 3.59304 -1.32584 2.24102
upperback -0.774754 -1.55416 4.00627
thorax -2.76296 -0.777948 2.96553
lowerneck -12.701 -0.777131 2.00861
upperneck 9.7211 -0.501755 -7.32626
head 4.97802 -0.669609 -2.65602
rclavicle -2.61899e-014 3.65764e-014
rhumerus -36.1695 -32.4695 -60.4458
rradius 15.6219
rwrist 6.80347
rhand -26.4402 30.0483
rfingers 7.12502
rthumb 0.120545 0.068632
lclavicle -2.61899e-014 3.65764e-014
lhumerus -33.7024 2.91647 83.8774
lradius 38.9406
lwrist -3.8986
lhand -2.89155 42.1936
lfingers 7.12502
lthumb 22.818 70.8639
rfemur -9.63227 -0.2523 30.159
rtibia 27.4969
rfoot -23.3084 -9.5844
rtoes 21.7227
lfemur -21.0494 -2.72903 -16.9653
ltibia 45.5233
lfoot -22.8279 -0.526534
ltoes 5.03318
206
root 0.0393671 17.2583 -33.1469 4.66164 4.60161 -4.04672
lowerback 3.45548 -1.29625 2.63265
upperback -0.81399 -1.49971 4.07591
thorax -2.73658 -0.756379 2.81178
lowerneck -12.796 -0.754506 2.19135
upperneck 9.88629 -0.44491 -7.72961
head 5.04696 -0.666924 -2.81186
rclavicle 1.93815e-015 5.56597e-015
rhumerus -36.153 -33.3281 -60.0261
rradius 15.2318
rwrist 8.05617
rhand -26.3271 30.6431
rfingers 7.12502
rthumb 0.229786 0.663522
lclavicle 1.93815e-015 5.56597e-015
lhumerus -33.813 3.16097 83.8332
lradius 38.7412
lwrist -4.28971
lhand -2.90079 41.456
lfingers 7.12502
lthumb 22.8092 70.1274
rfemur -9.51864 -0.155942 30.5527
rtibia 27.3483
rfoot -23.274 -9.52252
rtoes 22.2586
lfemur -21.6814 -2.63868 -16.5902
ltibia 46.458
lfoot -22.5728 0.061773
ltoes 3.71686
207
root 0.0304736 17.2516 -33.1118 4.48186 4.48616 -4.33014
lowerback 3.4792 -1.2192 2.85253
upperback -0.783809 -1.38501 4.14845
thorax -2.72586 -0.701974 2.75722
lowerneck -12.8227 -0.720117 2.19381
upperneck 9.92373 -0.375408 -7.89842
head 5.06685 -0.645593 -2.8609
rclavicle -1.25234e-014 -2.14687e-014
rhumerus -35.7147 -32.0089 -61.0866
rradius 15.6176
rwrist 6.1611
rhand -26.7074 30.018
rfingers 7.12502
rthumb -0.137456 0.0382992
lclavicle -1.25234e-014 -2.14687e-014
lhumerus -33.941 3.43577 83.8358
lradius 38.4717
lwrist -4.60999
lhand -3.0098 41.181
lfingers 7.12502
lthumb 22.7046 69.8652
rfemur -9.14596 0.0378481 30.9143
rtibia 27.1731
rfoot -23.1917 -9.73435
rtoes 22.0514
lfemur -21.9625 -2.33466 -16.2228
ltibia 47.3204
lfoot -22.7092 -0.200758
ltoes 2.6591
